PathFileType	4	(X/Y/Z)	c:/Users/goper/Files/vsCode/490R/osim_files/C11/C11_SSWS_02.trc
DataRate	CameraRate	NumFrames	NumMarkers	Units                	OrigDataRate	OrigDataStartFrame	OrigNumFrames
120.00	120.00	9	36	mm	120.0	465	1238
                Frame#	Time	LPSI			LASI			LTH1			LTH2			LTH3			LTH4			LLFE			LMFE			LSH1			LSH2			LSH3			LSH4			LLMA			LMMA			LCAL			LMTP			LTOE			LMTP			RPSI			RASI			RTH1			RTH2			RTH3			RTH4			RLFE			RMFE			RSH1			RSH2			RSH3			RSH4			RLMA			RMMA			RCAL			RMTP			RTOE			RMTP		
		X1	Y1	Z1	X2	Y2	Z2	X3	Y3	Z3	X4	Y4	Z4	X5	Y5	Z5	X6	Y6	Z6	X7	Y7	Z7	X8	Y8	Z8	X9	Y9	Z9	X10	Y10	Z10	X11	Y11	Z11	X12	Y12	Z12	X13	Y13	Z13	X14	Y14	Z14	X15	Y15	Z15	X16	Y16	Z16	X17	Y17	Z17	X18	Y18	Z18	X19	Y19	Z19	X20	Y20	Z20	X21	Y21	Z21	X22	Y22	Z22	X23	Y23	Z23	X24	Y24	Z24	X25	Y25	Z25	X26	Y26	Z26	X27	Y27	Z27	X28	Y28	Z28	X29	Y29	Z29	X30	Y30	Z30	X31	Y31	Z31	X32	Y32	Z32	X33	Y33	Z33	X34	Y34	Z34	X35	Y35	Z35	X36	Y36	Z36

465	3.86667	1037.75427	966.13635	246.39240	863.46399	967.45673	323.75482	1043.26831	603.33575	351.38010	1048.41504	555.65729	349.57211	986.89972	589.56354	366.39627	999.27258	545.18396	359.40524	1045.65149	479.58060	349.92365	1024.71985	480.50317	240.60295	1134.83630	402.31161	355.10693	1152.27356	360.70389	353.33099	1079.37720	370.42584	356.30023	1105.90100	333.89331	352.98877	1253.44141	111.64877	277.77197	1222.68652	127.56586	185.75339	1316.58435	88.17724	221.76219	1154.04163	39.88805	303.81134	1081.64050	53.94980	234.77670	1121.02527	45.41135	189.77560	1031.99182	976.02216	164.10103	864.76550	954.35010	91.01315	823.40784	600.88068	55.83983	800.99939	563.70166	64.13226	764.67365	626.48578	60.22360	751.87720	584.86932	66.85995	744.97406	502.47855	80.27219	750.73511	483.50479	194.30453	766.56201	378.35986	74.82414	744.62781	338.11456	77.50724	709.73547	402.25119	69.58916	695.25214	355.79346	72.60903	610.24658	93.13812	126.78808	585.49786	129.15659	212.97987	645.04706	42.71151	190.55931	449.94357	133.84380	181.70554	458.21542	138.72348	129.66757	485.16989	87.70087	80.22419
466	3.87500	1026.21118	965.12164	245.60707	852.10358	966.33972	323.50241	1033.25269	602.18317	350.22827	1038.86658	554.79901	348.47043	976.20062	588.08990	365.78745	989.97528	544.09760	358.86179	1037.07422	478.89771	349.37164	1014.30774	478.84570	240.03636	1126.46484	403.04773	354.64316	1144.68640	362.13248	352.41409	1071.71643	370.08032	355.85464	1099.60693	334.15033	352.68146	1251.45801	114.63163	278.29071	1220.42712	129.99585	186.36900	1315.36902	92.13549	221.91785	1153.99683	40.19396	303.75244	1081.52100	53.64244	234.69359	1120.52417	45.58207	189.83815	1019.93951	975.08972	163.40692	852.39447	953.24432	91.01553	808.71875	600.57031	57.34940	786.47040	563.51575	65.83569	750.60162	626.48340	61.80442	737.84558	584.93384	68.96253	731.05560	502.36316	82.23376	739.10968	483.35025	195.86592	755.32452	378.37640	75.89135	734.48627	337.30698	78.64494	697.86774	400.96216	71.89044	683.91888	353.34335	76.00030	611.13196	95.76075	128.01752	581.51935	125.83888	215.69559	644.56360	42.09843	192.13933	445.28818	125.69574	184.88293	453.85809	131.41100	133.26593	482.24969	82.73294	82.26724
467	3.88333	1013.52820	963.81354	244.91228	840.66956	965.02551	323.52820	1022.57617	600.94617	349.12106	1028.11218	553.43024	347.41714	966.44244	586.85486	365.13666	979.67969	542.81213	358.26639	1026.90479	477.81073	348.60516	1003.39398	477.26831	239.27702	1117.58044	403.90231	354.14606	1136.94116	363.36383	351.97937	1063.60144	369.90335	355.40945	1091.30603	334.85818	352.90869	1249.36707	118.14621	278.84280	1217.77344	132.10320	187.37961	1313.05884	98.49447	222.57852	1153.34497	40.40308	303.76721	1081.73950	53.25626	234.25620	1120.04236	45.80474	190.06122	1007.73834	974.30359	162.60576	839.81549	952.41949	91.12495	794.75323	600.67767	58.40913	773.12268	563.68884	66.79414	736.98651	626.64246	64.17643	723.63959	584.59467	71.36984	717.61218	502.17319	84.15539	727.35077	482.49884	197.81871	744.45758	378.07626	77.06780	724.64795	336.65494	80.25900	686.92920	399.81726	73.81877	673.72729	351.70966	78.52877	606.53998	96.24666	129.65628	575.79535	123.74129	218.77927	642.19000	43.28922	193.17987	439.61334	118.52151	186.26611	448.29779	127.47578	136.33722	478.24817	80.08565	84.66623
468	3.89167	1002.32336	963.69055	243.79649	828.91394	963.91986	323.58154	1011.90009	600.01703	347.93222	1017.08301	552.04706	346.47598	954.98981	585.47461	364.49603	968.22845	541.37677	357.46756	1015.76172	476.72620	347.62192	991.93384	475.77951	238.48187	1108.42041	405.04587	353.56223	1128.96655	365.05316	351.41324	1055.14819	369.88739	355.04630	1083.63098	335.38684	352.63831	1246.53577	121.70642	279.48788	1214.10742	135.28008	188.79845	1310.90918	103.42694	223.12494	1152.80603	40.82746	303.93665	1081.07446	53.27269	234.37865	1119.47571	46.32360	189.42574	995.56299	973.92383	161.58060	827.33887	951.97424	91.55264	781.51337	601.23047	59.25470	759.83832	563.85791	68.13566	723.65204	626.83844	66.35284	711.20520	584.98120	73.08233	705.21350	502.16849	85.65646	717.05927	481.30490	198.66417	734.07092	377.88849	78.55690	714.51465	336.27200	82.14912	676.34369	399.21725	75.34624	663.38116	350.75409	80.57472	600.15649	97.54345	131.19029	568.69043	122.04591	223.45253	638.50757	45.75991	194.24231	433.48874	113.13007	189.16858	441.40323	123.96031	139.33350	473.09033	77.37735	87.55782
469	3.90000	989.40625	962.82642	242.91011	816.92480	962.88837	323.48987	1000.31036	598.68591	346.93982	1005.49957	550.76074	345.42969	943.38019	584.15662	363.80222	956.61206	540.01733	356.71127	1004.70581	476.12555	346.52579	979.59583	474.28110	237.55861	1098.53796	406.35196	352.93668	1120.20398	367.18652	350.80542	1046.06165	370.04825	354.57443	1075.37927	336.23080	352.23492	1243.27014	125.55011	280.38873	1210.46265	138.84534	189.58858	1307.80469	109.34753	224.03934	1152.18921	41.24446	303.94559	1080.45605	53.32363	234.52782	1118.58142	46.77530	189.72221	983.32867	973.85803	160.57149	814.48480	952.03479	91.85033	769.03790	602.09149	59.69656	747.76776	564.55707	68.48991	711.10620	627.27960	68.39976	699.06317	585.28333	74.59898	693.99835	502.11194	86.17705	708.02942	480.13141	198.89142	722.98993	378.11362	79.82504	703.59052	336.39011	83.39260	665.30731	399.30078	76.35450	653.00256	351.35190	80.86304	593.23163	97.91480	132.41431	561.11908	119.62383	226.84213	634.74170	48.21405	194.88284	426.85269	105.46740	192.98477	432.96732	117.43293	143.21608	467.24203	73.37938	90.82675
470	3.90833	977.90686	962.91388	241.87206	804.19995	962.08044	322.81616	987.93927	597.17603	346.02802	993.40674	549.45996	344.22903	931.81177	582.87006	363.25690	944.22003	538.61182	355.97348	993.44147	475.44598	345.33728	966.48749	472.85629	236.43814	1087.36572	407.39993	352.32361	1110.04968	368.91916	350.41171	1036.77185	370.53415	354.57816	1066.64575	337.20981	351.87424	1239.50525	129.87700	281.31372	1207.26038	144.05048	188.31540	1304.60632	116.46541	224.68700	1151.67639	41.66571	303.89661	1079.91394	53.38619	234.63609	1117.54919	47.23956	189.94960	970.82477	973.92523	159.76810	801.63885	952.37177	91.80835	756.91351	602.60413	59.48100	736.24194	565.28741	67.85118	698.93982	627.68280	69.66624	687.11993	585.70850	75.67481	682.84174	502.15674	86.40932	699.86609	479.49872	198.80139	711.05804	378.83752	79.73432	691.97620	336.99680	83.28744	653.65625	400.01620	76.81609	640.64032	351.09244	82.43608	586.23303	97.54366	133.33006	555.36938	116.94434	229.12395	632.13257	50.05997	194.82202	421.94080	95.72075	197.73212	425.61630	108.76744	147.97037	461.61697	67.43722	94.56540
471	3.91667	965.50604	962.67358	241.13962	792.56604	961.52826	323.75375	974.73987	595.53943	345.05008	979.54303	547.61298	343.19211	918.00842	581.26794	362.55423	930.85699	537.07935	355.15750	980.77118	475.00531	344.16479	952.59735	471.48981	235.18039	1075.88452	409.24283	351.59198	1099.77600	371.24103	349.90872	1026.21729	371.00415	353.86609	1057.78516	338.71521	351.64484	1235.47217	134.75238	282.58334	1202.07410	148.20621	189.33173	1300.35950	124.12916	225.40341	1150.75659	42.40932	304.19604	1079.12695	53.40830	234.79836	1116.72742	47.46141	190.35629	958.30872	974.10583	159.21953	788.93085	952.95844	91.71960	744.11359	603.20013	59.26359	723.80072	565.84302	67.42918	686.61493	628.33142	70.59553	675.45557	586.41736	75.71546	671.02563	502.39801	86.69407	691.35626	479.40756	198.69551	699.13727	379.54291	78.32516	680.46637	337.54758	81.96628	639.35980	397.92206	80.87685	628.98138	351.29523	82.91058	580.81726	96.01539	133.61563	551.42279	114.73051	230.16568	630.04156	51.53506	194.04414	418.29614	87.53880	201.99457	420.10355	100.56891	152.33290	456.28391	60.49890	98.22593
472	3.92500	953.01105	962.49896	240.69241	780.77112	960.98596	323.20297	960.27222	593.32080	344.35855	965.65399	545.90399	342.25143	904.21588	579.71490	361.88498	916.30927	535.36157	354.37775	965.91730	474.04688	343.12949	937.73541	469.91830	234.06119	1064.09766	411.92328	350.78860	1088.46472	373.97510	349.40881	1014.75507	371.72797	353.80542	1046.67908	340.30331	351.64828	1229.67871	139.70097	283.65628	1195.94092	152.55952	190.49170	1295.07324	132.49751	226.01974	1149.51917	43.32538	304.39545	1078.37146	53.58074	234.94281	1115.53809	47.93920	190.50014	945.79755	974.42804	158.85367	776.02039	953.55859	91.76231	730.85590	603.82178	58.75351	710.26935	566.31293	67.57799	673.88440	629.08490	71.70776	662.61725	587.10132	76.56825	658.26367	502.81396	87.19104	681.69830	480.04733	198.68385	687.65808	379.96738	76.56101	669.11670	337.16092	80.67679	627.73273	397.62955	81.41086	618.76056	351.72208	82.14053	576.18170	94.74966	133.57538	547.94153	113.08494	230.95149	628.20386	52.02831	194.36453	414.97510	81.41760	206.05333	415.49167	93.97715	156.10445	451.82538	55.07673	101.13539
473	3.93333	940.64758	962.39362	240.43941	768.41772	960.72186	323.07816	945.56061	591.61432	343.48465	950.14001	543.76471	341.50198	888.56091	577.91754	361.24976	900.83124	533.54816	353.72342	950.74158	473.10739	342.26376	921.80969	468.11661	233.32025	1050.05273	413.49527	350.35257	1076.59570	377.07669	348.86813	1002.52814	372.80130	354.11520	1035.19885	342.22784	351.94342	1223.78857	145.37257	284.58231	1188.78528	157.23921	191.80725	1288.78760	141.77385	226.70753	1148.45874	44.47567	304.24319	1077.11401	54.02585	235.17525	1113.79236	48.52904	190.34183	933.42139	974.72485	158.60759	763.32843	954.32428	91.65417	717.29791	604.77594	58.52374	696.92487	567.28668	67.41820	660.46960	629.98541	73.12883	649.61700	588.09448	77.55086	645.85968	503.27686	87.74101	672.68945	480.07297	197.68388	676.73981	380.07550	75.08373	658.79010	336.77390	79.74089	616.74188	396.88019	81.81283	608.76770	351.56366	81.75445	572.03284	93.76347	133.85835	544.49573	111.15808	231.72386	626.28394	53.30180	194.23904	412.94806	74.75931	209.22531	411.53827	87.94444	158.43781	448.77872	50.73730	102.81835
